<svg width="68" height="38" viewBox="0 0 68 38" fill="none" xmlns="http://www.w3.org/2000/svg">
<g clip-path="url(#clip0_285_760)">
<path d="M62.3942 18.528C62.39 18.6232 62.3858 18.723 62.3816 18.8272C62.3824 18.927 62.3882 19.0266 62.399 19.1262C62.4269 19.4795 62.5149 19.8324 62.6579 20.1711L62.7394 20.3427C62.8261 20.5278 62.9326 20.6992 63.0542 20.8659C63.1909 21.0506 63.3375 21.2171 63.4889 21.3564C63.6957 21.5451 63.9225 21.711 64.1639 21.8405C64.4104 21.9744 64.6716 22.072 64.9376 22.1379C65.8308 22.3527 66.5423 23.0087 66.85 23.8946C66.9525 24.1883 67.0051 24.4916 67.0026 24.8043L67.0363 34.5442C67.0393 34.9158 66.9672 35.279 66.8296 35.6155C66.6971 35.9429 66.5041 36.2391 66.2558 36.4949C66.0124 36.7461 65.7236 36.9479 65.4092 37.0864C65.2495 37.1557 65.0796 37.2115 64.9046 37.2491C64.7347 37.2868 64.5595 37.3063 64.3843 37.3077L64.3642 37.3079L26.8727 37.4165C26.7124 37.4178 26.557 37.4009 26.4066 37.3749C26.2611 37.3489 26.1206 37.3138 25.99 37.265L25.8644 37.2161C25.7991 37.1895 25.7036 37.1449 25.613 37.0958L25.4872 37.0198C25.4067 36.9705 25.3362 36.9258 25.2707 36.8765L25.1597 36.7822C25.069 36.7059 25.0084 36.6474 24.9477 36.5799L24.8366 36.4585C24.786 36.4 24.7303 36.3279 24.6796 36.2513L24.5884 36.1115C24.5376 36.0258 24.4918 35.94 24.451 35.8542L24.3949 35.7233C24.3387 35.5877 24.2925 35.4521 24.2613 35.3074C24.2405 35.2169 24.2148 35.1264 24.189 35.0405L23.6953 34.061L23.5131 33.8268C23.412 33.7098 23.3513 33.6423 23.2908 33.5838L22.4093 32.9655L22.153 32.8543C21.9972 32.7921 21.9269 32.77 21.8517 32.7525C21.7362 32.7171 21.6509 32.6997 21.5656 32.6823L21.355 32.6522C21.1395 32.6313 21.0393 32.6321 20.9291 32.6285C20.834 32.6293 20.7388 32.63 20.6437 32.6399C19.5978 32.739 18.6411 33.3405 18.0775 34.256C18.0281 34.338 17.9837 34.42 17.9393 34.5064C17.8062 34.7659 17.7083 35.0431 17.6454 35.3247C17.4712 36.0784 16.9957 36.7304 16.3377 37.1074C15.9438 37.3327 15.4941 37.4587 15.0433 37.4533L2.96348 37.4876C2.7882 37.489 2.61277 37.4723 2.44721 37.4374L2.27157 37.3935C2.1762 37.3671 2.07073 37.3317 1.96524 37.2917L1.80436 37.216C1.7088 37.1669 1.61825 37.1178 1.53268 37.0641L1.3866 36.961C1.28582 36.8848 1.21519 36.8219 1.14456 36.759L1.00317 36.6151C0.932431 36.5386 0.871675 36.4575 0.810918 36.3764L0.694304 36.2006C0.6436 36.124 0.597794 36.0337 0.551915 35.9344L0.475438 35.7673C0.429449 35.6544 0.398521 35.5458 0.3726 35.4373L0.326098 35.2609C0.294766 35.1025 0.278311 34.9259 0.276881 34.7491L0.243088 25.0047C0.244318 24.5379 0.355798 24.0792 0.577893 23.674C0.785038 23.278 1.09779 22.9356 1.4664 22.6878C1.71548 22.5227 1.99494 22.398 2.28983 22.3231C2.74468 22.2107 3.15873 22.0079 3.52697 21.7148C4.03957 21.3118 4.42583 20.7693 4.64115 20.1467C4.69978 19.9649 4.74836 19.7787 4.78187 19.588C4.81038 19.3975 4.8288 19.1979 4.82715 18.9939C4.82666 18.3141 4.62602 17.6585 4.25585 17.0949C4.10374 16.865 3.92173 16.6535 3.71987 16.4648C3.65425 16.4018 3.58366 16.3435 3.50807 16.2852C3.32661 16.1416 3.1303 16.0208 2.92417 15.9228C2.70794 15.8157 2.49197 15.7404 2.27115 15.6833C2.12566 15.6528 1.97998 15.5996 1.83925 15.5372C1.56285 15.4216 1.31109 15.256 1.08905 15.0493C0.87206 14.8471 0.689827 14.6083 0.542468 14.3466C0.471255 14.2113 0.410059 14.0758 0.358805 13.9312C0.261305 13.6419 0.208731 13.3341 0.206163 13.0168L0.172407 3.277C0.173473 2.17109 0.811473 1.17333 1.80462 0.739248C2.12897 0.591586 2.48888 0.50709 2.84456 0.517809L14.9244 0.483493C15.0796 0.482236 15.24 0.494535 15.3905 0.525044C15.541 0.551021 15.6715 0.586224 15.797 0.630531L15.9427 0.688273C15.993 0.705996 16.0985 0.754998 16.1941 0.808613L16.32 0.884645C16.3854 0.924907 16.4609 0.974152 16.5315 1.02797L16.6676 1.14018C16.7281 1.19408 16.7937 1.25247 16.8493 1.31547L16.9554 1.43245C17.0212 1.51351 17.0718 1.58108 17.1225 1.65319L17.2036 1.77491C17.2595 1.86964 17.3002 1.95542 17.341 2.04121L17.3971 2.16313C17.4583 2.30314 17.5045 2.44327 17.5358 2.59258C17.5565 2.68306 17.5823 2.76897 17.608 2.85488L18.0866 3.8164L18.4356 4.23962C18.6173 4.41945 18.7535 4.53166 18.8945 4.63476L19.5787 5.01448L20.3117 5.2261C20.5174 5.26976 20.6828 5.29108 20.8681 5.28958L21.4085 5.22175C22.7438 4.98886 23.8423 3.95565 24.1566 2.57072C24.292 1.97135 24.6232 1.42932 25.0959 1.04477C25.5635 0.660262 26.1177 0.442755 26.7538 0.446671L64.2453 0.33359C64.4205 0.332171 64.591 0.353454 64.7615 0.3838L64.9372 0.432235C65.0275 0.454166 65.143 0.48949 65.2486 0.53396L65.4044 0.605217C65.505 0.658792 65.5955 0.707915 65.6811 0.761611L65.8524 0.887132C65.9179 0.936458 65.9986 0.999259 66.0693 1.0712L66.2056 1.21061C66.2763 1.28255 66.337 1.35911 66.3978 1.4402L66.5194 1.62051C66.5651 1.69719 66.616 1.79196 66.6618 1.88677L66.7333 2.05389C66.7793 2.16683 66.8102 2.27536 66.8412 2.38842L66.8826 2.56031C66.914 2.72322 66.9355 2.89981 66.9369 3.0811L66.9657 12.8165C66.9682 13.1337 66.9156 13.4378 66.8178 13.7332C66.7689 13.8786 66.7049 14.0151 66.6359 14.1516C66.2757 14.8254 65.6487 15.3154 64.9189 15.4981C64.5291 15.5964 64.1598 15.7671 63.8212 16.01C63.7017 16.0971 63.5822 16.1842 63.4729 16.2848C63.3387 16.4128 63.2146 16.5498 63.1006 16.6957C62.7586 17.1427 62.5225 17.6749 62.4319 18.2331C62.4127 18.333 62.4034 18.4282 62.3942 18.528Z" fill="#D53030"/>
<path d="M13.5401 28.7005L9.72424 27.5258L9.73143 28.4141L12.6179 29.2338L9.76029 30.1226L9.76751 31.0154L13.5536 29.7474L13.5451 28.7005L13.5401 28.7005Z" fill="white"/>
<path d="M13.2767 24.6235C13.1043 24.3574 12.8722 24.1463 12.5705 23.9946C12.2687 23.843 11.9376 23.7686 11.562 23.7716C11.1864 23.7747 10.8615 23.8589 10.5673 24.0154C10.2731 24.1764 10.0445 24.3913 9.88138 24.66C9.71831 24.9333 9.64057 25.2285 9.64321 25.5548C9.64585 25.8811 9.73334 26.1705 9.90581 26.441C10.0732 26.7071 10.3103 26.9182 10.6071 27.0744C10.9038 27.2261 11.24 27.3005 11.6106 27.2975C11.9812 27.2945 12.316 27.2102 12.6102 27.0491C12.9094 26.8836 13.138 26.6687 13.2961 26.4C13.4592 26.1267 13.5419 25.8269 13.5343 25.5052C13.5317 25.1834 13.4442 24.8895 13.2767 24.6235ZM12.3979 26.1852C12.1989 26.35 11.9342 26.4382 11.5986 26.4409C11.2631 26.4436 10.992 26.3643 10.7904 26.2027C10.5887 26.0412 10.4868 25.8199 10.4845 25.5435C10.4823 25.267 10.5757 25.0487 10.7746 24.8794C10.9736 24.7146 11.2384 24.6264 11.5739 24.6236C11.9094 24.6209 12.1755 24.7004 12.3822 24.8618C12.5838 25.0234 12.6857 25.2401 12.693 25.5165C12.6952 25.793 12.5969 26.0159 12.3979 26.1852Z" fill="white"/>
<path d="M13.2986 21.1424C13.1767 20.9213 13 20.7505 12.7635 20.621C12.5271 20.4915 12.2361 20.4304 11.9006 20.4331L9.63207 20.4651L9.63882 21.299L11.9124 21.2715C12.1427 21.2696 12.3185 21.3226 12.4445 21.4258C12.5655 21.5246 12.6318 21.6736 12.6334 21.873C12.6351 22.0724 12.5761 22.2179 12.4517 22.3187C12.3324 22.4239 12.1575 22.4751 11.9322 22.477L9.65859 22.5044L9.66538 23.3429L11.9389 23.3154C12.2745 23.3127 12.5644 23.2469 12.7988 23.1181C13.0332 22.9938 13.207 22.8202 13.3205 22.6062C13.434 22.3923 13.4921 22.1471 13.4849 21.8752C13.4827 21.6033 13.4206 21.359 13.2986 21.1424Z" fill="white"/>
<path d="M13.0614 17.1966C12.8186 16.9085 12.4916 16.7208 12.0801 16.6244L12.0876 17.549C12.2534 17.6156 12.3744 17.7098 12.4605 17.836C12.5416 17.9578 12.5879 18.1024 12.5892 18.261C12.5913 18.5194 12.4978 18.7286 12.2988 18.8934C12.1048 19.0536 11.84 19.1373 11.5095 19.14C11.174 19.1473 10.9079 19.0678 10.7063 18.9108C10.5097 18.7538 10.4078 18.5461 10.4007 18.2878C10.3995 18.1292 10.4384 17.9839 10.5225 17.8563C10.6016 17.7332 10.721 17.6326 10.8807 17.5633L10.8732 16.6433C10.4584 16.7463 10.1344 16.9439 9.90141 17.2358C9.66842 17.5323 9.55105 17.8823 9.55936 18.2901C9.56204 18.6209 9.6496 18.9194 9.81699 19.1809C9.98438 19.4424 10.2164 19.6445 10.513 19.7871C10.8097 19.9298 11.1408 19.9996 11.5214 19.9965C11.892 19.989 12.2269 19.9138 12.5162 19.7619C12.8054 19.61 13.0341 19.4041 13.1923 19.14C13.3554 18.8758 13.4331 18.576 13.4304 18.2406C13.4271 17.8328 13.2991 17.4848 13.0614 17.1966Z" fill="white"/>
<path d="M13.3612 15.2589L11.7987 15.2715L11.7782 13.9754L13.3456 13.9537L13.3388 13.1152L9.53286 13.1642L9.53965 14.0026L11.032 13.9905L11.0426 15.2913L9.56023 15.3078L9.56701 16.1462L13.373 16.1018L13.3662 15.2634L13.3612 15.2589Z" fill="white"/>
<path d="M13.2969 10.4097L12.5557 10.4157L12.566 11.6892L11.7397 11.6959L11.7307 10.5765L11.0095 10.5823L11.0186 11.7063L10.2574 11.717L10.2371 10.4481L9.49596 10.4541L9.52303 12.5614L13.324 12.5171L13.2969 10.4097Z" fill="white"/>
<path d="M11.8434 9.04366L11.8418 8.84425L13.2682 8.11206L13.2606 7.16485L11.7596 7.97923C11.6724 7.72612 11.5307 7.54144 11.3293 7.41163C11.128 7.28635 10.9021 7.22473 10.6517 7.22675C10.4263 7.22858 10.2264 7.28005 10.0419 7.37673C9.86239 7.47336 9.71833 7.61956 9.61971 7.81072C9.51608 8.00192 9.46787 8.23346 9.47007 8.50539L9.49146 9.91026L13.2874 9.86594L13.2806 9.0275L11.8433 9.03913L11.8434 9.04366ZM11.1874 9.05351L10.2459 9.06113L10.2417 8.54447C10.2404 8.39038 10.2796 8.27675 10.3591 8.19906C10.4436 8.12132 10.5534 8.07964 10.6987 8.07846C10.8539 8.07721 10.9694 8.11253 11.0552 8.18889C11.1359 8.26529 11.1819 8.37822 11.1831 8.53232L11.1874 9.05351Z" fill="white"/>
<path d="M62.4319 18.2331C62.5225 17.6749 62.7586 17.1427 63.1006 16.6957C63.2146 16.5498 63.3387 16.4128 63.4729 16.2848C63.5822 16.1842 63.7017 16.0971 63.8212 16.01C64.1598 15.7671 64.5291 15.5964 64.9189 15.4981C65.6487 15.3154 66.2757 14.8254 66.6359 14.1516C66.7049 14.0151 66.7689 13.8786 66.8178 13.7332C66.9156 13.4378 66.9682 13.1337 66.9657 12.8165L66.9369 3.0811C66.9355 2.89981 66.914 2.72322 66.8826 2.56031L66.8412 2.38842C66.8102 2.27536 66.7793 2.16683 66.7333 2.05389L66.6618 1.88677C66.616 1.79196 66.5651 1.69719 66.5194 1.62051L66.3978 1.4402C66.337 1.35911 66.2763 1.28255 66.2056 1.21061L66.0693 1.0712C65.9986 0.999259 65.9179 0.936458 65.8524 0.887132L65.6811 0.761611C65.5955 0.707915 65.505 0.658792 65.4044 0.605217L65.2486 0.53396C65.143 0.48949 65.0275 0.454166 64.9372 0.432235L64.7615 0.3838C64.591 0.353454 64.4205 0.332171 64.2453 0.33359L26.7538 0.446671C26.1177 0.442755 25.5635 0.660262 25.0959 1.04477C24.6232 1.42932 24.292 1.97135 24.1566 2.57072C23.8423 3.95565 22.7438 4.98886 21.4085 5.22175L20.8681 5.28958C20.6828 5.29108 20.5174 5.26976 20.3117 5.2261L19.5787 5.01448L18.8945 4.63476C18.7535 4.53166 18.6173 4.41945 18.4356 4.23962L18.0866 3.8164L17.608 2.85488C17.5823 2.76897 17.5565 2.68306 17.5358 2.59258C17.5045 2.44327 17.4583 2.30314 17.3971 2.16313L17.341 2.04121C17.3002 1.95542 17.2595 1.86964 17.2036 1.77491L17.1225 1.65319C17.0718 1.58108 17.0212 1.51351 16.9554 1.43245L16.8493 1.31547C16.7937 1.25247 16.7281 1.19408 16.6676 1.14018L16.5315 1.02797C16.4609 0.974152 16.3854 0.924907 16.32 0.884645L16.1941 0.808613C16.0985 0.754998 15.993 0.705996 15.9427 0.688273L15.797 0.630531C15.6715 0.586224 15.541 0.551021 15.3905 0.525044C15.24 0.494535 15.0796 0.482236 14.9244 0.483493L2.84456 0.517809C2.48888 0.50709 2.12897 0.591586 1.80462 0.739248C0.811473 1.17333 0.173473 2.17109 0.172407 3.277L0.206163 13.0168C0.208731 13.3341 0.261305 13.6419 0.358805 13.9312C0.410059 14.0758 0.471255 14.2113 0.542468 14.3466C0.689827 14.6083 0.87206 14.8471 1.08905 15.0493C1.31109 15.256 1.56285 15.4216 1.83925 15.5372C1.97998 15.5996 2.12566 15.6528 2.27115 15.6833C2.49197 15.7404 2.70794 15.8157 2.92417 15.9228C3.1303 16.0208 3.32661 16.1416 3.50807 16.2852C3.58366 16.3435 3.65425 16.4018 3.71987 16.4648C3.92173 16.6535 4.10374 16.865 4.25585 17.0949C4.62602 17.6585 4.82666 18.3141 4.82715 18.9939C4.8288 19.1979 4.81038 19.3975 4.78187 19.588C4.74836 19.7787 4.69978 19.9649 4.64115 20.1467C4.42583 20.7693 4.03957 21.3118 3.52697 21.7148C3.15873 22.0079 2.74468 22.2107 2.28983 22.3231C1.99494 22.398 1.71548 22.5227 1.4664 22.6878C1.09779 22.9356 0.785038 23.278 0.577893 23.674C0.355798 24.0792 0.244318 24.5379 0.243088 25.0047L0.276881 34.7491C0.278311 34.9259 0.294766 35.1025 0.326098 35.2609L0.3726 35.4373C0.398521 35.5458 0.429449 35.6544 0.475438 35.7673L0.551915 35.9344C0.597794 36.0337 0.6436 36.124 0.694304 36.2006L0.810918 36.3764C0.871675 36.4575 0.932431 36.5386 1.00317 36.6151L1.14456 36.759C1.21519 36.8219 1.28582 36.8848 1.3866 36.961L1.53268 37.0641C1.61825 37.1178 1.7088 37.1669 1.80436 37.216L1.96524 37.2917C2.07073 37.3317 2.1762 37.3671 2.27157 37.3935L2.44721 37.4374C2.61277 37.4723 2.7882 37.489 2.96348 37.4876L15.0433 37.4533C15.4941 37.4587 15.9438 37.3327 16.3377 37.1074C16.9957 36.7304 17.4712 36.0784 17.6454 35.3247C17.7083 35.0431 17.8062 34.7659 17.9393 34.5064C17.9837 34.42 18.0281 34.338 18.0775 34.256C18.6411 33.3405 19.5978 32.739 20.6437 32.6399C20.7388 32.63 20.834 32.6293 20.9291 32.6285C21.0393 32.6276 21.1395 32.6268 21.355 32.6522L21.5656 32.6823C21.6509 32.6997 21.7362 32.7171 21.8517 32.7525C21.9269 32.77 21.9972 32.7921 22.153 32.8543L22.4093 32.9655L23.2908 33.5838C23.3513 33.6423 23.412 33.7098 23.5131 33.8268L23.6953 34.061L24.189 35.0405C24.2148 35.1264 24.2405 35.2169 24.2613 35.3074C24.2925 35.4521 24.3387 35.5877 24.3949 35.7233L24.451 35.8542C24.4918 35.94 24.5376 36.0258 24.5884 36.1115L24.6796 36.2513C24.7303 36.3279 24.786 36.4 24.8366 36.4585L24.9477 36.5799C25.0084 36.6474 25.069 36.7059 25.1597 36.7822L25.2707 36.8765C25.3362 36.9258 25.4067 36.9705 25.4872 37.0198L25.613 37.0958C25.7036 37.1449 25.7991 37.1895 25.8644 37.2161L25.99 37.265C26.1206 37.3138 26.2611 37.3489 26.4066 37.3749C26.557 37.4009 26.7124 37.4178 26.8727 37.4165L64.3642 37.3079L64.3843 37.3077C64.5595 37.3063 64.7347 37.2868 64.9046 37.2491C65.0796 37.2115 65.2495 37.1557 65.4092 37.0864C65.7236 36.9479 66.0124 36.7461 66.2558 36.4949C66.5041 36.2391 66.6971 35.9429 66.8296 35.6155C66.9672 35.279 67.0393 34.9158 67.0363 34.5442L67.0026 24.8043C67.0051 24.4916 66.9525 24.1883 66.85 23.8946C66.5423 23.0087 65.8308 22.3527 64.9376 22.1379C64.6716 22.072 64.4104 21.9744 64.1639 21.8405C63.9225 21.711 63.6957 21.5451 63.4889 21.3564C63.3375 21.2171 63.1909 21.0506 63.0542 20.8659C62.9326 20.6992 62.8261 20.5278 62.7394 20.3427L62.6579 20.1711C62.5149 19.8324 62.4269 19.4795 62.399 19.1262C62.3882 19.0266 62.3824 18.927 62.3816 18.8272C62.3858 18.723 62.39 18.6232 62.3942 18.528C62.4034 18.4282 62.4127 18.333 62.4319 18.2331ZM59.8467 19.3599C59.9019 19.9985 60.0572 20.6228 60.3074 21.2145C60.3483 21.3184 60.3993 21.4222 60.4502 21.5261C60.608 21.8466 60.7959 22.1578 61.0086 22.4507C61.2466 22.7751 61.5094 23.0676 61.7819 23.3192C62.1402 23.6517 62.5432 23.9385 62.9707 24.1707C63.4084 24.4074 63.8756 24.5849 64.3524 24.7034L64.4434 24.816L64.4723 33.9531L64.4675 34.5967L64.3579 34.6701L26.9016 34.8056L26.7555 34.698C26.7192 34.5396 26.6728 34.3814 26.6215 34.2232L26.5753 34.083C26.5394 33.9791 26.5035 33.8751 26.4626 33.7803L26.386 33.5996C26.3453 33.5093 26.3045 33.419 26.2637 33.3377L25.9335 32.7557C25.8777 32.67 25.8219 32.5889 25.7459 32.4807L25.6649 32.3681C25.5941 32.278 25.5232 32.1879 25.4524 32.1069L25.3715 32.0033C25.2653 31.8863 25.1542 31.7739 24.9725 31.5986C24.8867 31.5178 24.7959 31.4369 24.6951 31.3516L24.5791 31.2574C24.4935 31.1946 24.4128 31.1318 24.3272 31.069L24.1811 30.9705C24.1006 30.9168 24.02 30.863 23.9295 30.8139L23.7735 30.7245C23.6879 30.6754 23.6024 30.6307 23.4918 30.5772L23.351 30.5104C23.2606 30.4703 23.1601 30.4304 23.0546 30.3904L22.9139 30.3326C22.7883 30.2883 22.6578 30.2486 22.457 30.1913C22.3114 30.1517 22.1659 30.1166 22.0004 30.0862C21.88 30.0645 21.7597 30.0519 21.6193 30.0349L21.4739 30.018C21.4388 30.0137 21.4088 30.014 21.3737 30.0097C21.2685 30.0015 21.1633 29.9978 21.058 29.9941C21.018 29.9945 20.9779 29.9902 20.9378 29.9906C20.7576 30.0011 20.5823 30.0025 20.4122 30.0175C20.3021 30.0274 20.197 30.0419 20.0919 30.0563C18.3862 30.3104 16.8369 31.3382 15.9125 32.8459C15.8236 32.9916 15.7396 33.1373 15.6657 33.2875C15.434 33.7471 15.2576 34.229 15.1465 34.733L15.037 34.82L2.91709 34.8501L2.14428 35.8988L2.84105 34.7374L2.8073 24.9976L1.52517 24.9989L2.89653 24.8835C3.69627 24.6867 4.43455 24.3227 5.08646 23.8052C5.9972 23.0908 6.67556 22.129 7.05727 21.0245C7.16488 20.7064 7.24734 20.3749 7.30468 20.0345C7.36199 19.6895 7.39422 19.3403 7.39136 18.9868C7.38661 17.7812 7.0366 16.6147 6.37745 15.6183C6.10869 15.2081 5.79014 14.8345 5.42685 14.502C5.30574 14.3897 5.18471 14.2864 5.0587 14.1877C4.73613 13.9365 4.38378 13.7173 4.00667 13.5345C3.63461 13.3562 3.25283 13.2143 2.86143 13.1223L2.77037 13.0097L2.73662 3.26985C2.73599 3.1928 2.80088 3.16508 2.85085 3.15108L14.9456 3.10758L15.0466 3.211C15.0829 3.36481 15.1242 3.51405 15.1705 3.66324L15.2218 3.8124C15.2576 3.91182 15.2935 4.01577 15.3293 4.1016L15.4059 4.28227C15.4417 4.37263 15.4824 4.45842 15.5232 4.53967L16.1169 5.5048C16.1727 5.5814 16.2334 5.65796 16.3143 5.75248L16.4104 5.86955C16.4761 5.94607 16.5468 6.01801 16.6226 6.09898L16.7186 6.20245C16.9407 6.41821 17.1727 6.61576 17.4195 6.79052L17.5454 6.87562C17.631 6.93385 17.7166 6.99207 17.8072 7.04573L17.9632 7.13512C18.0437 7.18432 18.1292 7.22895 18.2147 7.27358L18.3857 7.35378C18.4711 7.39388 18.5566 7.42945 18.6219 7.46065L19.2598 7.68211C19.3501 7.70404 19.4405 7.7305 19.5759 7.76113L19.7716 7.80487L20.0473 7.82983L20.6888 7.88809L20.6988 7.88801L20.8542 7.90489L21.0194 7.88995L21.3396 7.85563L21.9452 7.79634C24.2404 7.35625 26.114 5.55533 26.6506 3.16694L26.7601 3.07994L64.2967 2.98009L64.3727 3.08825L64.3919 12.8826C64.3919 12.8826 64.3572 12.9282 64.3122 12.9376C63.6175 13.111 62.9638 13.4154 62.3613 13.8418C62.1522 13.993 61.9431 14.1579 61.7543 14.3362C61.5156 14.5557 61.2972 14.7977 61.094 15.0577C60.4844 15.8512 60.0713 16.7973 59.9041 17.7867C59.8754 17.9592 59.8568 18.1316 59.8431 18.3039C59.8295 18.4808 59.821 18.6576 59.8224 18.8298C59.8188 19.0112 59.8303 19.1878 59.8467 19.3599Z" fill="#D53030"/>
<path d="M20.723 24.4862C20.6379 24.4869 20.553 24.5193 20.4934 24.5833C20.4288 24.6472 20.3994 24.7291 20.4001 24.8152L20.404 26.5375C20.4054 26.7006 20.5216 26.8311 20.6771 26.857C20.6921 26.8569 20.7122 26.8613 20.7272 26.8612C20.8123 26.8605 20.8972 26.8281 20.9568 26.7641C21.0164 26.7002 21.0508 26.6183 21.0501 26.5322L21.0461 24.8099C21.0454 24.7238 21.0097 24.6425 20.9491 24.5796C20.8885 24.5166 20.8031 24.4856 20.718 24.4863L20.723 24.4862Z" fill="#D53030"/>
<path d="M21.1775 24.342C21.0563 24.2206 20.8956 24.1585 20.7203 24.1554C20.55 24.1567 20.3903 24.226 20.271 24.3448C20.1469 24.4727 20.0781 24.6364 20.0795 24.8132L20.0785 26.5401C20.0811 26.8618 20.3136 27.1319 20.6195 27.1793L20.7298 27.192C20.9001 27.1906 21.0598 27.1213 21.184 26.9979C21.3032 26.8746 21.372 26.7109 21.3706 26.5341L21.3666 24.8073C21.3652 24.6306 21.2987 24.4634 21.1775 24.342ZM20.7306 24.8125L20.7195 26.5349L20.7206 24.8171L20.7256 24.817L20.7229 24.4862L20.7256 24.8125L20.7306 24.8125Z" fill="white"/>
<path d="M20.7151 21.0371C20.6299 21.0378 20.545 21.0702 20.4855 21.1342C20.4259 21.1981 20.3915 21.28 20.3922 21.3661L20.3961 23.0884C20.3968 23.1745 20.4325 23.2558 20.4931 23.3187C20.5436 23.3682 20.604 23.3994 20.6691 23.4079C20.6842 23.4078 20.7042 23.4077 20.7243 23.412C20.9045 23.4106 21.0486 23.2644 21.0471 23.0831L21.0432 21.3608C21.0417 21.1795 20.8953 21.0357 20.7201 21.0371L20.7151 21.0371Z" fill="#D53030"/>
<path d="M21.1697 20.8974C21.0485 20.776 20.8877 20.7094 20.7174 20.7062C20.5469 20.6849 20.3874 20.7769 20.2632 20.9002C20.139 21.0236 20.0702 21.1873 20.0716 21.3641L20.0756 23.0909C20.077 23.2677 20.1434 23.4303 20.2696 23.5562C20.3656 23.6506 20.4863 23.713 20.6267 23.7346L20.7219 23.7429C21.0775 23.74 21.3656 23.4431 21.3677 23.085L21.3637 21.3627C21.3623 21.1859 21.2958 21.0188 21.1697 20.8974ZM20.7166 23.0902L20.7127 21.368L20.7227 21.3679L20.7166 23.0902Z" fill="white"/>
<path d="M20.7309 27.9353C20.6458 27.936 20.5609 27.9684 20.5013 28.0324C20.4417 28.0963 20.4073 28.1782 20.408 28.2643L20.412 29.9866C20.4127 30.0727 20.4484 30.154 20.509 30.2169C20.5595 30.2664 20.6198 30.2976 20.685 30.3061C20.7 30.306 20.7201 30.3104 20.7401 30.3102C20.9204 30.3088 21.0645 30.1626 21.063 29.9813L21.0591 28.259C21.0576 28.0777 20.9112 27.9339 20.7359 27.9353L20.7309 27.9353Z" fill="#D53030"/>
<path d="M21.1905 27.8001C21.0643 27.6742 20.9035 27.603 20.7282 27.6044C20.5529 27.6059 20.3982 27.6751 20.274 27.794C20.1498 27.9173 20.086 28.0855 20.0824 28.2623L20.0864 29.9846C20.0864 29.9846 20.0868 30.0345 20.092 30.0571C20.1082 30.2065 20.1694 30.342 20.2805 30.4544C20.3764 30.5488 20.4971 30.6113 20.6275 30.6284L20.7327 30.6366L20.7377 30.6365C21.0783 30.6338 21.3615 30.355 21.3737 30.0105C21.3786 30.0014 21.3786 29.9923 21.3785 29.9832L21.3745 28.2564C21.3731 28.0842 21.3067 27.9216 21.1905 27.8001ZM20.7235 28.2662C20.7235 28.2662 20.7285 28.2616 20.7335 28.2616L20.7274 29.984L20.7235 28.2662Z" fill="white"/>
<path d="M20.6947 7.38113C20.6095 7.38182 20.5247 7.41423 20.4651 7.47817C20.4054 7.53757 20.3711 7.62397 20.3718 7.71008L20.3746 9.30092C20.376 9.46408 20.4922 9.59458 20.6477 9.62051C20.6627 9.62039 20.6827 9.62023 20.7028 9.6246C20.7879 9.62391 20.8728 9.5915 20.9324 9.52756C20.992 9.46362 21.0264 9.38176 21.0257 9.29565L21.0228 7.70481C21.0221 7.6187 20.9864 7.5374 20.9258 7.47444C20.8652 7.41148 20.7848 7.3804 20.6947 7.38113Z" fill="#D53030"/>
<path d="M21.1443 7.23695C20.9069 6.99412 20.4812 6.99303 20.2378 7.23975C20.1136 7.36313 20.0498 7.53135 20.0463 7.70814L20.0473 7.83051L20.0491 9.29899C20.0517 9.62077 20.2793 9.89087 20.6002 9.94266L20.7005 9.95091C20.8708 9.94953 21.0305 9.88026 21.1497 9.76145C21.2739 9.63354 21.3427 9.46981 21.3412 9.29306L21.3396 7.85631L21.3384 7.70221C21.3369 7.52546 21.2705 7.3583 21.1443 7.23695Z" fill="white"/>
<path d="M20.7122 17.5926C20.5319 17.594 20.3878 17.7402 20.3893 17.9215L20.3932 19.6438C20.3945 19.8069 20.5108 19.9374 20.6662 19.9634C20.6813 19.9633 20.7013 19.9631 20.7213 19.9629C20.8065 19.9623 20.8913 19.9298 20.9509 19.8659C21.0105 19.802 21.0449 19.7201 21.0442 19.634L21.0403 17.9117C21.0396 17.8256 21.0089 17.7443 20.9433 17.6813C20.8827 17.6184 20.8023 17.5873 20.7121 17.588L20.7122 17.5926Z" fill="#D53030"/>
<path d="M21.1618 17.4484C21.0456 17.3269 20.8848 17.2603 20.7145 17.2616L20.7045 17.2617C20.354 17.2646 20.0658 17.557 20.0638 17.9196L20.0677 19.6418C20.0703 19.9591 20.3029 20.2382 20.6188 20.2855L20.714 20.2938C20.8843 20.2924 21.044 20.2277 21.1632 20.1043C21.2875 19.981 21.3562 19.8127 21.3548 19.636L21.3509 17.9137C21.3494 17.7369 21.283 17.5698 21.1568 17.4484L21.1618 17.4484ZM20.7148 17.9143L20.7087 19.6412L20.7048 17.9189L20.7021 17.5881L20.7098 17.9143L20.7148 17.9143Z" fill="white"/>
<path d="M20.6964 10.6944C20.5161 10.6958 20.3721 10.842 20.3735 11.0233L20.3775 12.7456C20.3788 12.9088 20.4951 13.0438 20.6505 13.0652C20.6655 13.0651 20.6855 13.0649 20.7056 13.0647C20.7907 13.0641 20.8756 13.0316 20.9352 12.9677C20.9948 12.9038 21.0292 12.8219 21.0285 12.7358L21.0245 11.0135C21.0231 10.8322 20.8767 10.6884 20.7014 10.6898L20.6964 10.6944Z" fill="#D53030"/>
<path d="M20.6988 10.3635L20.6938 10.3635C20.3432 10.3664 20.0551 10.6633 20.053 11.0214L20.057 12.7482C20.0596 13.07 20.2871 13.3401 20.6081 13.3919L20.7033 13.4001C20.8786 13.3987 21.0383 13.3295 21.1575 13.2061C21.2817 13.0827 21.3505 12.9145 21.3491 12.7423L21.3451 11.0154C21.3422 10.6574 21.0544 10.3651 20.6988 10.3635Z" fill="white"/>
<path d="M20.7044 14.1435C20.6193 14.1441 20.5344 14.1766 20.4748 14.2405C20.4153 14.3044 20.3809 14.3863 20.3816 14.4724L20.3855 16.1947C20.3862 16.2808 20.4219 16.3621 20.4825 16.425C20.533 16.4745 20.5933 16.5057 20.6585 16.5143C20.6735 16.5142 20.6936 16.514 20.7136 16.5184C20.7988 16.5177 20.8837 16.4853 20.9432 16.4213C21.0028 16.3574 21.0372 16.2755 21.0365 16.1894L21.0326 14.4671C21.0311 14.2859 20.8847 14.142 20.7094 14.1434L20.7044 14.1435Z" fill="#D53030"/>
<path d="M20.7067 13.8126L20.7017 13.8126C20.5314 13.814 20.3717 13.8787 20.2475 14.0021C20.1283 14.13 20.0595 14.2937 20.061 14.4705L20.0649 16.1927C20.0613 16.3695 20.1328 16.5367 20.259 16.6625C20.3549 16.7569 20.4756 16.8194 20.601 16.8365L20.7112 16.8447L20.7162 16.8447C20.8815 16.8433 21.0412 16.7786 21.1654 16.6552C21.2847 16.5319 21.3534 16.3636 21.352 16.1869L21.3531 14.4645C21.3501 14.102 21.0623 13.8097 20.7067 13.8126ZM20.712 14.4652L20.7059 16.1921L20.7021 14.4743C20.7021 14.4743 20.702 14.4698 20.707 14.4698L20.7044 14.1389L20.707 14.4652L20.712 14.4652Z" fill="white"/>
</g>
<defs>
<clipPath id="clip0_285_760">
<rect width="66.9142" height="37.2868" fill="white" transform="translate(0 0.54156) rotate(-0.46372)"/>
</clipPath>
</defs>
</svg>
